<mxfile host="app.diagrams.net" agent="Mozilla/5.0 (Windows NT 10.0; Win64; x64) AppleWebKit/537.36 (KHTML, like Gecko) Chrome/136.0.0.0 Safari/537.36 Edg/136.0.0.0" version="27.0.6">
  <diagram id="R2lEEEUBdFMjLlhIrx00" name="Page-1">
    <mxGraphModel dx="862" dy="450" grid="1" gridSize="10" guides="1" tooltips="1" connect="1" arrows="1" fold="1" page="1" pageScale="1" pageWidth="850" pageHeight="1100" math="0" shadow="0" extFonts="Permanent Marker^https://fonts.googleapis.com/css?family=Permanent+Marker">
      <root>
        <mxCell id="0" />
        <mxCell id="1" parent="0" />
        <mxCell id="7b9_jvajrbm3tGJafVNa-1" value="&lt;font&gt;Cliente&lt;/font&gt;" style="whiteSpace=wrap;html=1;align=center;fontFamily=Times New Roman;" vertex="1" parent="1">
          <mxGeometry x="235" y="124.75999999999999" width="110" height="40" as="geometry" />
        </mxCell>
        <mxCell id="7b9_jvajrbm3tGJafVNa-4" value="" style="ellipse;whiteSpace=wrap;html=1;aspect=fixed;fontFamily=Times New Roman;" vertex="1" parent="1">
          <mxGeometry x="325" y="195" width="10" height="10" as="geometry" />
        </mxCell>
        <mxCell id="7b9_jvajrbm3tGJafVNa-5" value="" style="ellipse;whiteSpace=wrap;html=1;aspect=fixed;fontFamily=Times New Roman;" vertex="1" parent="1">
          <mxGeometry x="265" y="195" width="10" height="10" as="geometry" />
        </mxCell>
        <mxCell id="7b9_jvajrbm3tGJafVNa-6" value="" style="ellipse;whiteSpace=wrap;html=1;aspect=fixed;fillColor=#FFFFFF;fontFamily=Times New Roman;" vertex="1" parent="1">
          <mxGeometry x="245" y="195" width="10" height="10" as="geometry" />
        </mxCell>
        <mxCell id="7b9_jvajrbm3tGJafVNa-7" style="edgeStyle=orthogonalEdgeStyle;shape=connector;rounded=0;orthogonalLoop=1;jettySize=auto;html=1;exitX=0.5;exitY=0;exitDx=0;exitDy=0;entryX=0.135;entryY=0.99;entryDx=0;entryDy=0;entryPerimeter=0;strokeColor=default;align=center;verticalAlign=middle;fontFamily=Times New Roman;fontSize=7;fontColor=default;labelBackgroundColor=default;autosize=1;resizable=0;startFill=0;endArrow=none;" edge="1" parent="1" source="7b9_jvajrbm3tGJafVNa-6" target="7b9_jvajrbm3tGJafVNa-1">
          <mxGeometry relative="1" as="geometry" />
        </mxCell>
        <mxCell id="7b9_jvajrbm3tGJafVNa-8" value="&lt;font&gt;CF&lt;/font&gt;" style="text;html=1;align=center;verticalAlign=middle;resizable=0;points=[];autosize=1;strokeColor=none;fillColor=none;fontFamily=Times New Roman;fontSize=12;fontColor=default;labelBackgroundColor=default;" vertex="1" parent="1">
          <mxGeometry x="225" y="205" width="40" height="30" as="geometry" />
        </mxCell>
        <mxCell id="7b9_jvajrbm3tGJafVNa-9" style="edgeStyle=orthogonalEdgeStyle;shape=connector;rounded=0;orthogonalLoop=1;jettySize=auto;html=1;exitX=0.5;exitY=0;exitDx=0;exitDy=0;entryX=0.314;entryY=0.988;entryDx=0;entryDy=0;entryPerimeter=0;strokeColor=default;align=center;verticalAlign=middle;fontFamily=Times New Roman;fontSize=7;fontColor=default;labelBackgroundColor=default;autosize=1;resizable=0;startFill=0;endArrow=none;" edge="1" parent="1" source="7b9_jvajrbm3tGJafVNa-5" target="7b9_jvajrbm3tGJafVNa-1">
          <mxGeometry relative="1" as="geometry" />
        </mxCell>
        <mxCell id="7b9_jvajrbm3tGJafVNa-10" value="&lt;font&gt;Data&lt;br&gt;Nascita&lt;/font&gt;" style="text;html=1;align=center;verticalAlign=middle;resizable=0;points=[];autosize=1;strokeColor=none;fillColor=none;fontFamily=Times New Roman;fontSize=12;fontColor=default;labelBackgroundColor=default;" vertex="1" parent="1">
          <mxGeometry x="255" y="200" width="60" height="40" as="geometry" />
        </mxCell>
        <mxCell id="7b9_jvajrbm3tGJafVNa-11" value="&lt;font&gt;Citta&lt;br&gt;Nascita&lt;/font&gt;" style="text;html=1;align=center;verticalAlign=middle;resizable=0;points=[];autosize=1;strokeColor=none;fillColor=none;fontFamily=Times New Roman;fontSize=12;fontColor=default;labelBackgroundColor=default;" vertex="1" parent="1">
          <mxGeometry x="310" y="200" width="60" height="40" as="geometry" />
        </mxCell>
        <mxCell id="7b9_jvajrbm3tGJafVNa-12" style="edgeStyle=orthogonalEdgeStyle;shape=connector;rounded=0;orthogonalLoop=1;jettySize=auto;html=1;exitX=1;exitY=0.5;exitDx=0;exitDy=0;entryX=0;entryY=0.75;entryDx=0;entryDy=0;strokeColor=default;align=center;verticalAlign=middle;fontFamily=Times New Roman;fontSize=11;fontColor=default;labelBackgroundColor=default;startFill=0;endArrow=none;" edge="1" parent="1" source="7b9_jvajrbm3tGJafVNa-13" target="7b9_jvajrbm3tGJafVNa-1">
          <mxGeometry relative="1" as="geometry" />
        </mxCell>
        <mxCell id="7b9_jvajrbm3tGJafVNa-13" value="" style="ellipse;whiteSpace=wrap;html=1;aspect=fixed;fontFamily=Times New Roman;" vertex="1" parent="1">
          <mxGeometry x="210" y="154.76" width="10" height="10" as="geometry" />
        </mxCell>
        <mxCell id="7b9_jvajrbm3tGJafVNa-14" style="edgeStyle=orthogonalEdgeStyle;shape=connector;rounded=0;orthogonalLoop=1;jettySize=auto;html=1;exitX=0.5;exitY=0;exitDx=0;exitDy=0;entryX=0.864;entryY=1.002;entryDx=0;entryDy=0;entryPerimeter=0;strokeColor=default;align=center;verticalAlign=middle;fontFamily=Times New Roman;fontSize=11;fontColor=default;labelBackgroundColor=default;startFill=0;endArrow=none;" edge="1" parent="1" source="7b9_jvajrbm3tGJafVNa-4" target="7b9_jvajrbm3tGJafVNa-1">
          <mxGeometry relative="1" as="geometry" />
        </mxCell>
        <mxCell id="7b9_jvajrbm3tGJafVNa-15" value="" style="ellipse;whiteSpace=wrap;html=1;aspect=fixed;fontFamily=Times New Roman;" vertex="1" parent="1">
          <mxGeometry x="210" y="134.76" width="10" height="10" as="geometry" />
        </mxCell>
        <mxCell id="7b9_jvajrbm3tGJafVNa-16" style="edgeStyle=orthogonalEdgeStyle;shape=connector;rounded=0;orthogonalLoop=1;jettySize=auto;html=1;exitX=1;exitY=0.5;exitDx=0;exitDy=0;entryX=0.002;entryY=0.224;entryDx=0;entryDy=0;entryPerimeter=0;strokeColor=default;align=center;verticalAlign=middle;fontFamily=Times New Roman;fontSize=11;fontColor=default;labelBackgroundColor=default;startFill=0;endArrow=none;" edge="1" parent="1" source="7b9_jvajrbm3tGJafVNa-15" target="7b9_jvajrbm3tGJafVNa-1">
          <mxGeometry relative="1" as="geometry" />
        </mxCell>
        <mxCell id="7b9_jvajrbm3tGJafVNa-19" style="edgeStyle=orthogonalEdgeStyle;shape=connector;rounded=0;orthogonalLoop=1;jettySize=auto;html=1;exitX=0.5;exitY=1;exitDx=0;exitDy=0;entryX=0.089;entryY=0.032;entryDx=0;entryDy=0;entryPerimeter=0;strokeColor=default;align=center;verticalAlign=middle;fontFamily=Times New Roman;fontSize=7;fontColor=default;labelBackgroundColor=default;autosize=1;resizable=0;startFill=0;endArrow=none;" edge="1" parent="1" source="7b9_jvajrbm3tGJafVNa-25" target="7b9_jvajrbm3tGJafVNa-24">
          <mxGeometry relative="1" as="geometry" />
        </mxCell>
        <mxCell id="7b9_jvajrbm3tGJafVNa-20" style="edgeStyle=orthogonalEdgeStyle;shape=connector;rounded=0;orthogonalLoop=1;jettySize=auto;html=1;exitX=0.5;exitY=1;exitDx=0;exitDy=0;entryX=0.273;entryY=0.015;entryDx=0;entryDy=0;entryPerimeter=0;strokeColor=default;align=center;verticalAlign=middle;fontFamily=Times New Roman;fontSize=7;fontColor=default;labelBackgroundColor=default;autosize=1;resizable=0;startFill=0;endArrow=none;" edge="1" parent="1" source="7b9_jvajrbm3tGJafVNa-26" target="7b9_jvajrbm3tGJafVNa-24">
          <mxGeometry relative="1" as="geometry" />
        </mxCell>
        <mxCell id="7b9_jvajrbm3tGJafVNa-21" style="edgeStyle=orthogonalEdgeStyle;shape=connector;rounded=0;orthogonalLoop=1;jettySize=auto;html=1;exitX=0.5;exitY=1;exitDx=0;exitDy=0;entryX=0.91;entryY=0.003;entryDx=0;entryDy=0;entryPerimeter=0;strokeColor=default;align=center;verticalAlign=middle;fontFamily=Times New Roman;fontSize=7;fontColor=default;labelBackgroundColor=default;autosize=1;resizable=0;startFill=0;endArrow=none;" edge="1" parent="1" source="7b9_jvajrbm3tGJafVNa-28" target="7b9_jvajrbm3tGJafVNa-24">
          <mxGeometry relative="1" as="geometry" />
        </mxCell>
        <mxCell id="7b9_jvajrbm3tGJafVNa-22" style="edgeStyle=orthogonalEdgeStyle;shape=connector;rounded=0;orthogonalLoop=1;jettySize=auto;html=1;exitX=0.5;exitY=0;exitDx=0;exitDy=0;entryX=0.818;entryY=1.009;entryDx=0;entryDy=0;entryPerimeter=0;strokeColor=default;align=center;verticalAlign=middle;fontFamily=Times New Roman;fontSize=7;fontColor=default;labelBackgroundColor=default;autosize=1;resizable=0;startFill=0;endArrow=none;" edge="1" parent="1" source="7b9_jvajrbm3tGJafVNa-27" target="7b9_jvajrbm3tGJafVNa-24">
          <mxGeometry relative="1" as="geometry" />
        </mxCell>
        <mxCell id="7b9_jvajrbm3tGJafVNa-23" style="edgeStyle=orthogonalEdgeStyle;rounded=0;orthogonalLoop=1;jettySize=auto;html=1;exitX=0.5;exitY=0;exitDx=0;exitDy=0;entryX=0.088;entryY=0.98;entryDx=0;entryDy=0;entryPerimeter=0;endArrow=none;startFill=0;fontFamily=Times New Roman;" edge="1" parent="1" source="7b9_jvajrbm3tGJafVNa-29" target="7b9_jvajrbm3tGJafVNa-24">
          <mxGeometry relative="1" as="geometry" />
        </mxCell>
        <mxCell id="7b9_jvajrbm3tGJafVNa-24" value="Oggetto" style="whiteSpace=wrap;html=1;align=center;fontFamily=Times New Roman;" vertex="1" parent="1">
          <mxGeometry x="220" y="435" width="110" height="40" as="geometry" />
        </mxCell>
        <mxCell id="7b9_jvajrbm3tGJafVNa-25" value="" style="ellipse;whiteSpace=wrap;html=1;aspect=fixed;fillColor=#000000;fontFamily=Times New Roman;" vertex="1" parent="1">
          <mxGeometry x="225" y="405" width="10" height="10" as="geometry" />
        </mxCell>
        <mxCell id="7b9_jvajrbm3tGJafVNa-26" value="" style="ellipse;whiteSpace=wrap;html=1;aspect=fixed;fontFamily=Times New Roman;" vertex="1" parent="1">
          <mxGeometry x="245" y="405" width="10" height="10" as="geometry" />
        </mxCell>
        <mxCell id="7b9_jvajrbm3tGJafVNa-27" value="" style="ellipse;whiteSpace=wrap;html=1;aspect=fixed;fontFamily=Times New Roman;" vertex="1" parent="1">
          <mxGeometry x="305" y="495" width="10" height="10" as="geometry" />
        </mxCell>
        <mxCell id="7b9_jvajrbm3tGJafVNa-28" value="" style="ellipse;whiteSpace=wrap;html=1;aspect=fixed;fontFamily=Times New Roman;" vertex="1" parent="1">
          <mxGeometry x="315" y="395" width="10" height="10" as="geometry" />
        </mxCell>
        <mxCell id="7b9_jvajrbm3tGJafVNa-29" value="" style="ellipse;whiteSpace=wrap;html=1;aspect=fixed;fontFamily=Times New Roman;" vertex="1" parent="1">
          <mxGeometry x="225" y="495" width="10" height="10" as="geometry" />
        </mxCell>
        <mxCell id="7b9_jvajrbm3tGJafVNa-30" value="Descrizione" style="text;html=1;align=center;verticalAlign=middle;resizable=0;points=[];autosize=1;strokeColor=none;fillColor=none;fontFamily=Times New Roman;fontSize=12;fontColor=default;labelBackgroundColor=default;" vertex="1" parent="1">
          <mxGeometry x="230" y="380" width="80" height="30" as="geometry" />
        </mxCell>
        <mxCell id="7b9_jvajrbm3tGJafVNa-32" value="(0,n)" style="text;html=1;align=center;verticalAlign=middle;resizable=0;points=[];autosize=1;strokeColor=none;fillColor=none;fontFamily=Times New Roman;fontSize=11;fontColor=default;labelBackgroundColor=default;" vertex="1" parent="1">
          <mxGeometry x="270" y="410" width="40" height="30" as="geometry" />
        </mxCell>
        <mxCell id="7b9_jvajrbm3tGJafVNa-33" value="(1,1)" style="text;html=1;align=center;verticalAlign=middle;resizable=0;points=[];autosize=1;strokeColor=none;fillColor=none;fontFamily=Times New Roman;fontSize=11;fontColor=default;labelBackgroundColor=default;" vertex="1" parent="1">
          <mxGeometry x="250" y="470" width="40" height="30" as="geometry" />
        </mxCell>
        <mxCell id="7b9_jvajrbm3tGJafVNa-35" value="Posseduto" style="shape=rhombus;perimeter=rhombusPerimeter;whiteSpace=wrap;html=1;align=center;fontFamily=Times New Roman;" vertex="1" parent="1">
          <mxGeometry x="245" y="280" width="120" height="60" as="geometry" />
        </mxCell>
        <mxCell id="7b9_jvajrbm3tGJafVNa-36" style="edgeStyle=orthogonalEdgeStyle;shape=connector;rounded=0;orthogonalLoop=1;jettySize=auto;html=1;exitX=0.5;exitY=0;exitDx=0;exitDy=0;strokeColor=default;align=center;verticalAlign=middle;fontFamily=Times New Roman;fontSize=11;fontColor=default;labelBackgroundColor=default;startFill=0;endArrow=none;" edge="1" parent="1" source="7b9_jvajrbm3tGJafVNa-35">
          <mxGeometry relative="1" as="geometry">
            <mxPoint x="305" y="165" as="targetPoint" />
          </mxGeometry>
        </mxCell>
        <mxCell id="7b9_jvajrbm3tGJafVNa-37" style="edgeStyle=orthogonalEdgeStyle;shape=connector;rounded=0;orthogonalLoop=1;jettySize=auto;html=1;exitX=0.5;exitY=1;exitDx=0;exitDy=0;entryX=0.776;entryY=0.002;entryDx=0;entryDy=0;entryPerimeter=0;strokeColor=default;align=center;verticalAlign=middle;fontFamily=Times New Roman;fontSize=11;fontColor=default;labelBackgroundColor=default;startFill=0;endArrow=none;" edge="1" parent="1" source="7b9_jvajrbm3tGJafVNa-35" target="7b9_jvajrbm3tGJafVNa-24">
          <mxGeometry relative="1" as="geometry" />
        </mxCell>
        <mxCell id="7b9_jvajrbm3tGJafVNa-39" value="&lt;font&gt;Prezzo base&lt;/font&gt;" style="text;html=1;align=center;verticalAlign=middle;resizable=0;points=[];autosize=1;strokeColor=none;fillColor=none;fontFamily=Times New Roman;fontSize=12;fontColor=default;labelBackgroundColor=default;" vertex="1" parent="1">
          <mxGeometry x="300" y="365" width="80" height="30" as="geometry" />
        </mxCell>
        <mxCell id="7b9_jvajrbm3tGJafVNa-41" value="Dimensioni" style="text;html=1;align=center;verticalAlign=middle;resizable=0;points=[];autosize=1;strokeColor=none;fillColor=none;fontFamily=Times New Roman;fontSize=12;fontColor=default;labelBackgroundColor=default;" vertex="1" parent="1">
          <mxGeometry x="190" y="503" width="80" height="30" as="geometry" />
        </mxCell>
        <mxCell id="7b9_jvajrbm3tGJafVNa-42" value="Stato" style="text;html=1;align=center;verticalAlign=middle;resizable=0;points=[];autosize=1;strokeColor=none;fillColor=none;fontFamily=Times New Roman;fontSize=12;fontColor=default;labelBackgroundColor=default;" vertex="1" parent="1">
          <mxGeometry x="295" y="500" width="50" height="30" as="geometry" />
        </mxCell>
        <mxCell id="7b9_jvajrbm3tGJafVNa-43" style="edgeStyle=orthogonalEdgeStyle;shape=connector;rounded=0;orthogonalLoop=1;jettySize=auto;html=1;exitX=0.5;exitY=1;exitDx=0;exitDy=0;entryX=0.25;entryY=0;entryDx=0;entryDy=0;strokeColor=default;align=center;verticalAlign=middle;fontFamily=Times New Roman;fontSize=11;fontColor=default;labelBackgroundColor=default;startFill=0;endArrow=none;" edge="1" parent="1">
          <mxGeometry relative="1" as="geometry">
            <mxPoint x="244.77999999999997" y="95.39999999999998" as="sourcePoint" />
            <mxPoint x="244.77999999999997" y="125.39999999999998" as="targetPoint" />
          </mxGeometry>
        </mxCell>
        <mxCell id="7b9_jvajrbm3tGJafVNa-44" value="&lt;font&gt;Nome utente&lt;/font&gt;" style="text;html=1;align=center;verticalAlign=middle;resizable=0;points=[];autosize=1;strokeColor=none;fillColor=none;fontSize=12;fontFamily=Times New Roman;" vertex="1" parent="1">
          <mxGeometry x="185" y="70" width="90" height="30" as="geometry" />
        </mxCell>
        <mxCell id="7b9_jvajrbm3tGJafVNa-45" style="edgeStyle=orthogonalEdgeStyle;shape=connector;rounded=0;orthogonalLoop=1;jettySize=auto;html=1;exitX=0.5;exitY=1;exitDx=0;exitDy=0;entryX=0.75;entryY=0;entryDx=0;entryDy=0;strokeColor=default;align=center;verticalAlign=middle;fontFamily=Times New Roman;fontSize=11;fontColor=default;labelBackgroundColor=default;startFill=0;endArrow=none;" edge="1" parent="1">
          <mxGeometry relative="1" as="geometry">
            <mxPoint x="290" y="95" as="sourcePoint" />
            <mxPoint x="290" y="125" as="targetPoint" />
          </mxGeometry>
        </mxCell>
        <mxCell id="7b9_jvajrbm3tGJafVNa-46" value="" style="ellipse;whiteSpace=wrap;html=1;aspect=fixed;fillColor=#000000;fontFamily=Times New Roman;" vertex="1" parent="1">
          <mxGeometry x="240" y="90" width="10" height="10" as="geometry" />
        </mxCell>
        <mxCell id="7b9_jvajrbm3tGJafVNa-47" value="" style="ellipse;whiteSpace=wrap;html=1;aspect=fixed;fontFamily=Times New Roman;" vertex="1" parent="1">
          <mxGeometry x="285" y="85" width="10" height="10" as="geometry" />
        </mxCell>
        <mxCell id="7b9_jvajrbm3tGJafVNa-48" value="Nome" style="text;html=1;align=center;verticalAlign=middle;resizable=0;points=[];autosize=1;strokeColor=none;fillColor=none;fontFamily=Times New Roman;fontSize=12;fontColor=default;labelBackgroundColor=default;" vertex="1" parent="1">
          <mxGeometry x="170" y="124.76" width="50" height="30" as="geometry" />
        </mxCell>
        <mxCell id="7b9_jvajrbm3tGJafVNa-49" value="Cognome" style="text;html=1;align=center;verticalAlign=middle;resizable=0;points=[];autosize=1;strokeColor=none;fillColor=none;fontFamily=Times New Roman;fontSize=12;fontColor=default;labelBackgroundColor=default;" vertex="1" parent="1">
          <mxGeometry x="150" y="144.76" width="70" height="30" as="geometry" />
        </mxCell>
        <mxCell id="7b9_jvajrbm3tGJafVNa-50" value="&lt;font&gt;Password&lt;/font&gt;" style="text;html=1;align=center;verticalAlign=middle;resizable=0;points=[];autosize=1;strokeColor=none;fillColor=none;fontSize=12;fontFamily=Times New Roman;" vertex="1" parent="1">
          <mxGeometry x="260" y="65" width="70" height="30" as="geometry" />
        </mxCell>
        <mxCell id="7b9_jvajrbm3tGJafVNa-52" value="Codice&amp;nbsp;" style="text;html=1;align=center;verticalAlign=middle;resizable=0;points=[];autosize=1;strokeColor=none;fillColor=none;fontFamily=Times New Roman;fontSize=12;fontColor=default;labelBackgroundColor=default;" vertex="1" parent="1">
          <mxGeometry x="190" y="380" width="60" height="30" as="geometry" />
        </mxCell>
      </root>
    </mxGraphModel>
  </diagram>
</mxfile>
